<svg xmlns="http://www.w3.org/2000/svg" width="888" height="200" viewBox="0 0 888 200">
  <path fill="none" d="M228.862 153.48h430.274v46.039H228.862z"/>
  <path fill="#6FBAD0" d="M252.646 187.48c-.36.27-.81.359-1.215.359-.72 0-1.44-.359-1.89-1.035l-14.714-21.148v19.979c0 1.215-.99 2.205-2.205 2.205s-2.25-.99-2.25-2.205v-27.044c-.09-.854.27-1.71 1.035-2.204a2.214 2.214 0 0 1 3.105.675l14.669 21.779v-20.564c0-1.26 1.035-2.25 2.25-2.25s2.205.99 2.205 2.25v26.999a2.191 2.191 0 0 1-.99 2.204zm3.51-11.025c0-6.254 5.085-11.294 11.294-11.294 6.255 0 11.294 5.04 11.294 11.294 0 6.21-5.04 11.295-11.294 11.295-6.209 0-11.294-5.085-11.294-11.295zm4.455 0c0 3.735 3.06 6.84 6.839 6.84s6.84-3.104 6.84-6.84c0-3.779-3.06-6.839-6.84-6.839s-6.839 3.06-6.839 6.839zm34.333-9.044c0 1.215-.99 2.25-2.25 2.25a6.836 6.836 0 0 0-6.839 6.839v9.045c0 1.215-.99 2.25-2.205 2.25a2.257 2.257 0 0 1-2.25-2.25V176.5c0-6.254 5.085-11.294 11.294-11.294 1.261 0 2.25.99 2.25 2.205zm18.045 0c0 1.215-.99 2.25-2.25 2.25h-3.195v15.884c0 1.215-.99 2.25-2.25 2.25-1.215 0-2.205-1.035-2.205-2.25v-15.884h-3.24c-1.215 0-2.205-1.035-2.205-2.25s.99-2.205 2.205-2.205h3.24v-9c0-1.215.99-2.205 2.205-2.205 1.26 0 2.25.99 2.25 2.205v9h3.195c1.26 0 2.25.99 2.25 2.205zm22.589 7.65V185.5c0 1.26-1.035 2.25-2.25 2.25s-2.205-.99-2.205-2.25v-10.439c0-3.015-2.475-5.444-5.49-5.444a5.435 5.435 0 0 0-5.445 5.444V185.5c0 1.26-.99 2.25-2.25 2.25-1.215 0-2.205-.99-2.205-2.25v-29.294c0-1.215.99-2.205 2.205-2.205 1.26 0 2.25.99 2.25 2.205v10.575a9.809 9.809 0 0 1 5.445-1.62c5.49 0 9.945 4.455 9.945 9.9zm25.244 1.394c0 1.215-.99 2.205-2.25 2.205h-15.524c.945 2.7 3.465 4.635 6.479 4.635 1.035 0 2.88-.09 5.04-1.484 1.035-.675 2.43-.045 2.97 1.034.54 1.125-.045 2.295-1.08 2.971-2.97 1.979-5.265 1.935-6.93 1.935-6.255 0-11.294-5.085-11.294-11.295 0-6.254 5.04-11.294 11.294-11.294 5.445-.001 11.295 3.959 11.295 11.293zm-17.774-2.25h13.004c-.945-3.149-3.825-4.589-6.525-4.589-3.014 0-5.534 1.935-6.479 4.589zm52.152.226c.045.09.045.135.045.225v10.935c0 1.26-1.034 2.25-2.249 2.25-1.216 0-2.205-.99-2.205-2.25v-11.34c0-2.521-2.07-4.545-4.59-4.545-2.521 0-4.59 2.024-4.59 4.545v11.339c0 1.26-.99 2.25-2.205 2.25s-2.25-.99-2.25-2.25v-11.339a4.531 4.531 0 0 0-4.545-4.545c-2.52 0-4.59 2.024-4.59 4.545v11.339c0 1.26-.99 2.25-2.205 2.25-1.26 0-2.25-.99-2.25-2.25v-11.339c0-4.95 4.05-9 9.045-9 2.7 0 5.13 1.17 6.795 3.104a8.903 8.903 0 0 1 6.795-3.104c4.994 0 9.044 4.05 9.044 9 0 .09 0 .135-.045.18zm36.857 11.069c0 1.26-1.034 2.25-2.25 2.25h-15.659c-1.26 0-2.25-.99-2.25-2.25v-26.909c0-1.26.99-2.25 2.25-2.25 1.215 0 2.25.99 2.25 2.25v24.659h13.409c1.215 0 2.25.99 2.25 2.25zm3.421-25.424c-.405-.405-.676-.99-.676-1.575s.271-1.17.676-1.575c.404-.404.989-.675 1.574-.675s1.17.271 1.575.675c.405.405.63.99.63 1.575s-.225 1.17-.63 1.575-.99.63-1.575.63-1.17-.225-1.574-.63zm-.676 25.469v-18.134c0-1.215.99-2.205 2.25-2.205 1.215 0 2.205.99 2.205 2.205v18.134c0 1.26-.99 2.25-2.205 2.25-1.26 0-2.25-.99-2.25-2.25zm29.609 2.205c0 6.21-5.085 11.295-11.294 11.295-4.365 0-8.235-2.431-10.17-6.345-.54-1.125-.09-2.431 1.035-2.971 1.08-.54 2.43-.09 2.97.99 1.17 2.385 3.51 3.87 6.165 3.87 3.734 0 6.749-3.015 6.84-6.705v-2.475c-1.936 1.439-4.275 2.34-6.84 2.34-6.255 0-11.295-5.085-11.295-11.295 0-6.254 5.04-11.294 11.295-11.294 6.209 0 11.294 5.04 11.294 11.294v11.296zm-4.454-11.295c0-3.779-3.105-6.839-6.84-6.839-3.78 0-6.84 3.06-6.84 6.839 0 3.735 3.06 6.84 6.84 6.84 3.735 0 6.84-3.105 6.84-6.84zm26.864-1.394V185.5c0 1.26-1.035 2.25-2.25 2.25s-2.205-.99-2.205-2.25v-10.439c0-3.015-2.475-5.444-5.489-5.444a5.434 5.434 0 0 0-5.445 5.444V185.5c0 1.26-.99 2.25-2.25 2.25-1.215 0-2.205-.99-2.205-2.25v-29.294c0-1.215.99-2.205 2.205-2.205 1.26 0 2.25.99 2.25 2.205v10.575a9.809 9.809 0 0 1 5.445-1.62c5.489 0 9.944 4.455 9.944 9.9zm15.705-7.65c0 1.215-.989 2.25-2.25 2.25h-3.194v15.884c0 1.215-.99 2.25-2.25 2.25-1.215 0-2.205-1.035-2.205-2.25v-15.884h-3.239c-1.216 0-2.205-1.035-2.205-2.25s.989-2.205 2.205-2.205h3.239v-9c0-1.215.99-2.205 2.205-2.205 1.26 0 2.25.99 2.25 2.205v9h3.194c1.261 0 2.25.99 2.25 2.205z"/>
  <path fill="#454546" d="M539.517 187.705c-1.035.225-2.431-.271-2.971-1.62l-1.619-4.59h-10.979l-1.891 4.59c-.225 1.035-1.08 1.62-2.159 1.62h-.495c-1.351-.585-1.891-1.89-1.62-2.97l9.63-26.819c.27-.854 1.079-1.62 2.204-1.62 1.08 0 1.846.766 2.115 1.62l9.135 26.819c.494 1.08-.001 2.385-1.35 2.97zm-5.941-10.755l-3.96-11.52-4.05 11.52h8.01zm21.105-9.539c0 1.215-.989 2.25-2.25 2.25h-3.194v15.884c0 1.215-.99 2.25-2.25 2.25-1.215 0-2.205-1.035-2.205-2.25v-15.884h-3.239c-1.216 0-2.205-1.035-2.205-2.25s.989-2.205 2.205-2.205h3.239v-9c0-1.215.99-2.205 2.205-2.205 1.26 0 2.25.99 2.25 2.205v9h3.194c1.26 0 2.25.99 2.25 2.205zm-.089 9.044c0-6.254 5.085-11.294 11.295-11.294 6.255 0 11.294 5.04 11.294 11.294 0 6.21-5.039 11.295-11.294 11.295-6.21 0-11.295-5.085-11.295-11.295zm4.455 0c0 3.735 3.06 6.84 6.84 6.84 3.779 0 6.84-3.104 6.84-6.84a6.837 6.837 0 0 0-6.84-6.839 6.836 6.836 0 0 0-6.84 6.839zm52.333-2.024c.045.09.045.135.045.225v10.935c0 1.26-1.034 2.25-2.249 2.25-1.216 0-2.205-.99-2.205-2.25v-11.34c0-2.521-2.07-4.545-4.59-4.545-2.521 0-4.59 2.024-4.59 4.545v11.339c0 1.26-.99 2.25-2.205 2.25s-2.25-.99-2.25-2.25v-11.339a4.531 4.531 0 0 0-4.545-4.545c-2.52 0-4.59 2.024-4.59 4.545v11.339c0 1.26-.99 2.25-2.205 2.25-1.26 0-2.25-.99-2.25-2.25v-11.339c0-4.95 4.05-9 9.045-9 2.7 0 5.13 1.17 6.795 3.104a8.903 8.903 0 0 1 6.795-3.104c4.994 0 9.044 4.05 9.044 9 0 .09 0 .135-.045.18zm16.516 2.024v-17.639c0-1.26.99-2.25 2.205-2.25 1.26 0 2.25.99 2.25 2.25v17.639c0 3.78 3.06 6.84 6.84 6.84 3.779 0 6.84-3.06 6.84-6.84v-17.639c0-1.26.989-2.25 2.204-2.25 1.261 0 2.25.99 2.25 2.25v17.639c0 6.255-5.085 11.295-11.294 11.295-6.21 0-11.295-5.04-11.295-11.295zm25.29 9.09v-27.179c0-1.215.99-2.205 2.25-2.205 1.215 0 2.205.99 2.205 2.205v27.179c0 1.26-.99 2.25-2.205 2.25-1.26 0-2.25-.99-2.25-2.25z"/>
  <g fill-rule="evenodd" clip-rule="evenodd" fill="#454546">
    <path d="M444.846 135.955c-18.951-.516-34.582-6.99-47.737-19.621-3.937-3.777-4.499-7.246-.978-11.549 3.068-3.75 5.746-7.814 8.706-11.656 3.61-4.686 5.591-4.625 9.361.117.629.791 1.202 1.627 1.826 2.42 3.673 4.672 5.838 4.758 9.395.109 4.053-5.295 7.966-10.695 11.901-16.08 2.88-3.941 5.717-4.066 8.666-.084 5.65 7.633 11.516 15.115 16.928 22.914 3.691 5.32 8.252 7.99 14.791 7.525 4.023-.283 8.084-.055 12.127-.033 1.631.008 3.439-.02 4.275 1.652 1.049 2.09-.633 3.426-1.895 4.656-11.4 11.117-24.971 17.654-40.883 19.16-2.411.23-4.835.353-6.483.47z"/>
    <path d="M444.623.955c41.613-.08 73.428 37.316 66.67 78.486-.402 2.449 0 5.941-2.939 6.826-3.256.979-4.18-2.557-5.645-4.541-4.691-6.344-9.164-12.852-13.842-19.205-4.201-5.701-8.359-5.715-12.588-.129-2.318 3.064-4.416 6.295-6.777 9.328-4.15 5.334-8.113 5.352-12.154-.189-8.227-11.277-16.259-22.697-24.382-34.051-5.511-7.707-9.076-7.676-14.7.178-10.486 14.641-20.912 29.322-31.45 43.924-1.445 2.004-2.338 5.486-5.583 4.713-3.137-.748-2.661-4.275-3.069-6.68-6.963-41.043 24.801-78.578 66.459-78.66z"/>
  </g>
</svg>
